<?xml version="1.0" standalone="no"?>
<!DOCTYPE svg PUBLIC "-//W3C//DTD SVG 20010904//EN"
 "http://www.w3.org/TR/2001/REC-SVG-20010904/DTD/svg10.dtd">
<svg version="1.0" xmlns="http://www.w3.org/2000/svg"
 width="996.000000pt" height="996.000000pt" viewBox="0 0 996.000000 996.000000"
 preserveAspectRatio="xMidYMid meet">
<metadata>
Created by potrace 1.14, written by Peter Selinger 2001-2017
</metadata>
<g transform="translate(0.000000,996.000000) scale(0.100000,-0.100000)"
fill="#000000" stroke="none">
<path d="M4885 9920 c-22 -5 -425 -145 -895 -313 -470 -168 -1021 -365 -1225
-437 -574 -204 -615 -219 -700 -250 -44 -16 -278 -99 -520 -185 -983 -349
-911 -320 -1001 -410 -106 -105 -163 -256 -149 -395 6 -63 38 -342 145 -1270
77 -658 144 -1241 195 -1685 25 -220 66 -571 90 -780 24 -209 65 -560 90 -780
25 -220 62 -535 81 -700 36 -318 54 -400 104 -478 58 -91 118 -137 347 -264
221 -123 283 -157 1368 -758 336 -186 907 -502 1270 -703 362 -202 686 -377
720 -391 53 -23 74 -26 175 -25 92 0 125 4 166 20 46 19 234 122 1014 554 146
81 499 277 785 435 286 158 660 365 830 460 171 94 452 250 625 345 286 158
322 181 386 245 74 74 112 140 133 230 6 28 24 165 40 305 17 140 50 433 75
650 78 672 144 1247 196 1700 59 504 130 1118 194 1680 25 217 66 569 91 783
51 437 54 525 25 620 -38 123 -134 236 -247 292 -29 14 -211 82 -405 151 -566
201 -599 213 -683 244 -44 16 -309 111 -590 210 -280 100 -955 341 -1500 535
-544 194 -1017 358 -1049 364 -67 12 -122 13 -181 1z m965 -2674 c866 -3 887
-4 925 -24 176 -90 176 -374 2 -464 l-42 -21 -1754 7 c-1525 6 -1759 9 -1790
22 -80 34 -131 112 -139 214 -9 135 55 239 168 270 23 7 319 6 2630 -4z m65
-1021 c33 -21 57 -47 79 -85 28 -50 31 -63 31 -145 0 -73 -4 -98 -22 -130 -26
-49 -78 -100 -116 -114 -19 -8 -318 -11 -927 -11 -609 0 -908 3 -927 11 -38
14 -91 66 -115 114 -25 48 -35 154 -19 211 13 49 58 118 91 141 61 43 53 42
986 40 l891 -2 48 -30z m-179 -1000 c674 -3 990 -8 1010 -15 79 -30 144 -136
144 -236 0 -102 -36 -175 -112 -227 l-43 -29 -1763 6 c-1931 6 -1800 2 -1865
64 -54 51 -72 98 -72 192 0 100 25 164 81 206 71 54 49 53 874 48 421 -2 1206
-6 1746 -9z m179 -1040 c33 -21 57 -47 79 -85 28 -50 31 -63 31 -145 0 -73 -4
-98 -22 -130 -26 -49 -78 -100 -116 -114 -36 -14 -1814 -15 -1850 -2 -39 15
-96 70 -119 115 -25 49 -35 154 -19 211 22 82 86 153 157 175 16 5 430 8 920
7 l891 -2 48 -30z m-519 -999 c1441 -5 1357 -1 1418 -62 112 -112 96 -337 -29
-414 -32 -20 -50 -20 -1804 -20 -1579 0 -1776 2 -1809 16 -82 34 -132 111
-140 216 -10 135 59 242 173 268 17 4 219 5 450 4 231 -2 1014 -6 1741 -8z"/>
</g>
</svg>
