<?xml version="1.0" standalone="no"?>
<!DOCTYPE svg PUBLIC "-//W3C//DTD SVG 20010904//EN"
 "http://www.w3.org/TR/2001/REC-SVG-20010904/DTD/svg10.dtd">
<svg version="1.0" xmlns="http://www.w3.org/2000/svg"
 width="552.000000pt" height="552.000000pt" viewBox="0 0 552.000000 552.000000"
 preserveAspectRatio="xMidYMid meet">
<metadata>
Created by potrace 1.14, written by Peter Selinger 2001-2017
</metadata>
<g transform="translate(0.000000,552.000000) scale(0.100000,-0.100000)"
fill="#000000" stroke="none">
<path d="M2580 5411 c-47 -10 -113 -30 -147 -45 -34 -14 -247 -133 -475 -264
-227 -131 -591 -341 -808 -467 -217 -125 -422 -247 -456 -271 -79 -56 -189
-174 -237 -255 -56 -96 -96 -208 -113 -322 -14 -89 -15 -193 -9 -807 4 -388 8
-706 10 -708 1 -2 49 -7 106 -11 97 -8 217 -31 264 -51 84 -34 125 -50 135
-50 6 0 36 -16 67 -36 31 -20 65 -37 77 -38 12 -1 41 -17 66 -35 54 -39 96
-62 102 -55 3 2 11 -2 18 -11 7 -8 16 -15 21 -15 4 0 21 -12 36 -26 15 -14 36
-30 45 -35 15 -8 16 -6 7 20 -6 18 -9 181 -7 442 3 456 2 447 68 503 104 87
259 34 290 -100 5 -21 10 -214 10 -429 0 -357 -2 -393 -19 -430 -30 -66 -104
-115 -175 -115 -18 0 -18 -1 -1 -20 10 -11 21 -17 26 -14 4 2 18 -9 31 -27 13
-17 44 -46 70 -64 25 -19 49 -43 53 -55 4 -12 12 -19 18 -17 7 2 26 -16 43
-41 18 -24 33 -39 36 -32 2 6 16 -9 32 -34 15 -24 36 -46 47 -49 10 -3 23 -16
28 -30 5 -14 15 -28 22 -33 8 -5 9 -3 4 6 -6 9 -4 11 4 5 7 -4 21 -27 32 -52
10 -24 23 -42 27 -39 5 3 19 -12 33 -33 15 -24 27 -35 31 -28 4 7 16 -9 29
-38 12 -27 34 -62 49 -76 14 -15 35 -48 45 -74 11 -30 20 -43 25 -35 7 11 18
-13 49 -105 7 -21 10 -24 10 -10 1 17 3 16 15 -7 8 -15 17 -42 21 -60 12 -60
17 -70 31 -64 16 6 30 -40 38 -124 3 -30 5 -56 6 -58 0 -2 4 0 10 3 6 3 10 18
10 33 1 23 2 25 11 9 5 -9 13 -80 16 -157 3 -77 10 -140 15 -140 11 0 6 -91
-7 -126 -6 -20 1 -25 74 -53 113 -43 205 -61 322 -61 176 0 284 31 469 134
367 204 1573 905 1621 942 184 141 305 365 330 606 6 66 9 448 7 1053 -4 939
-4 951 -26 1032 -54 205 -174 382 -337 498 -96 68 -1684 980 -1755 1008 -144
57 -332 71 -490 38z m-8 -1041 c116 -36 221 -119 282 -222 62 -106 60 -86 66
-650 5 -504 5 -517 26 -545 11 -15 36 -38 54 -50 68 -47 172 -16 210 62 19 39
20 62 20 483 0 349 3 449 14 475 16 38 76 94 112 103 48 12 121 -2 159 -30 72
-56 70 -36 70 -566 0 -469 0 -476 -23 -541 -76 -219 -258 -351 -487 -352 -206
0 -373 110 -467 308 l-33 70 -5 512 c-5 497 -6 512 -26 539 -69 94 -169 94
-238 0 -21 -27 -21 -41 -26 -680 l-5 -653 -27 -35 c-77 -102 -248 -87 -302 25
-14 31 -16 104 -16 695 0 630 1 663 20 724 48 156 170 278 328 329 80 25 211
25 294 -1z m1551 -704 c37 -15 94 -76 102 -109 3 -12 4 -403 3 -869 -3 -841
-3 -847 -24 -875 -28 -38 -76 -69 -119 -77 -85 -16 -182 47 -205 134 -9 34
-11 247 -8 860 3 748 5 818 21 847 47 88 144 126 230 89z m-2571 -42 c15 -8
40 -30 55 -51 27 -35 28 -41 31 -176 4 -156 -2 -181 -54 -227 -86 -75 -206
-58 -271 39 -21 31 -23 45 -23 168 0 153 10 187 67 230 56 43 130 49 195 17z
m1059 -1308 c136 -55 247 -177 291 -319 22 -69 23 -87 23 -408 l0 -335 -28
-42 c-63 -97 -213 -110 -289 -25 -45 49 -48 77 -48 398 0 338 -2 348 -63 385
-61 38 -151 17 -187 -42 -18 -29 -20 -51 -21 -188 -1 -173 -8 -204 -58 -255
-86 -88 -236 -64 -290 47 -19 39 -21 62 -21 199 0 178 14 258 60 350 44 85
137 177 221 217 93 44 130 52 244 48 81 -3 113 -8 166 -30z m879 -11 c35 -18
66 -54 85 -97 22 -55 22 -601 0 -655 -20 -48 -41 -71 -87 -94 -66 -34 -147
-22 -202 29 -54 51 -56 65 -56 394 0 285 1 304 21 344 41 86 152 122 239 79z"/>
<path d="M1397 1809 c7 -7 15 -10 18 -7 3 3 -2 9 -12 12 -14 6 -15 5 -6 -5z"/>
</g>
</svg>
