<?xml version="1.0" standalone="no"?>
<!DOCTYPE svg PUBLIC "-//W3C//DTD SVG 20010904//EN"
 "http://www.w3.org/TR/2001/REC-SVG-20010904/DTD/svg10.dtd">
<svg version="1.0" xmlns="http://www.w3.org/2000/svg"
 width="498.000000pt" height="498.000000pt" viewBox="0 0 498.000000 498.000000"
 preserveAspectRatio="xMidYMid meet">
<metadata>
Created by potrace 1.14, written by Peter Selinger 2001-2017
</metadata>
<g transform="translate(0.000000,498.000000) scale(0.100000,-0.100000)"
fill="#000000" stroke="none">
<path d="M2430 4950 c-25 -10 -92 -35 -150 -55 -58 -20 -127 -45 -155 -55
-119 -43 -207 -75 -490 -175 -165 -58 -309 -110 -320 -115 -11 -5 -175 -63
-365 -130 -190 -67 -394 -140 -455 -162 -60 -22 -156 -56 -213 -76 l-103 -36
6 -45 c4 -25 8 -61 11 -79 2 -18 11 -96 19 -175 16 -146 22 -196 30 -257 3
-19 7 -57 10 -85 3 -27 7 -61 9 -75 3 -14 7 -56 11 -93 3 -37 8 -76 10 -85 2
-10 6 -49 9 -87 4 -39 9 -77 11 -85 2 -8 6 -46 10 -85 3 -38 8 -83 10 -100 2
-16 6 -55 10 -85 4 -30 8 -68 10 -85 2 -16 7 -52 10 -80 3 -27 7 -68 10 -90 7
-63 14 -126 20 -180 7 -66 17 -146 20 -165 2 -9 6 -47 9 -85 4 -39 9 -81 11
-95 3 -14 7 -47 10 -75 6 -67 14 -142 20 -185 3 -19 7 -57 10 -85 3 -27 8 -63
10 -80 2 -16 7 -61 10 -100 4 -38 9 -78 11 -87 1 -9 6 -48 9 -85 4 -37 8 -75
10 -83 2 -8 7 -46 10 -85 4 -38 10 -74 14 -78 7 -6 170 -98 386 -217 28 -15
133 -74 235 -130 102 -56 208 -115 235 -130 28 -15 106 -59 175 -97 165 -92
223 -124 295 -163 33 -18 74 -41 90 -50 17 -10 57 -32 90 -50 33 -18 74 -41
90 -50 17 -9 105 -58 197 -109 l167 -93 33 20 c18 11 58 33 88 49 30 17 242
134 470 260 228 127 629 348 890 493 261 144 476 263 476 264 1 0 14 105 28
231 26 225 31 266 41 343 2 20 11 100 20 177 8 77 17 156 20 175 2 19 20 175
40 345 19 171 42 367 50 438 8 70 22 187 30 260 9 72 22 186 30 252 8 66 16
143 19 170 11 95 57 490 61 520 16 122 17 155 4 159 -8 3 -212 75 -454 161
-242 86 -541 192 -665 236 -124 44 -254 91 -290 104 -287 106 -885 315 -899
314 -9 0 -36 -9 -61 -19z"/>
</g>
</svg>
