<svg viewBox="0 0 463 498" fill="none" xmlns="http://www.w3.org/2000/svg">
	<path d="M231.54 0.800049L0.09375 83.3353L35.3949 389.362L231.54 498L427.686 389.362L462.987 83.3353L231.54 0.800049Z" fill="#004BDD"/>
	<path d="M231.541 0.800049V55.9893V55.7406V307.572V498L427.686 389.362L462.987 83.3353L231.541 0.800049Z" fill="#002BC3"/>
	<path fill-rule="evenodd" clip-rule="evenodd" d="M145.738 161.281L317.544 161.86C323.461 161.881 328.279 157.092 328.3 151.174C328.314 145.257 323.533 140.439 317.615 140.418L145.809 139.839C139.891 139.817 135.074 144.606 135.053 150.524C135.031 156.442 139.82 161.259 145.738 161.281V161.281Z" fill="white"/>
	<path fill-rule="evenodd" clip-rule="evenodd" d="M145.738 332.772L317.544 333.351C323.461 333.372 328.279 328.583 328.3 322.666C328.314 316.748 323.533 311.93 317.615 311.909L145.809 311.33C139.891 311.316 135.074 316.097 135.053 322.015C135.031 327.933 139.82 332.757 145.738 332.772V332.772Z" fill="white"/>
	<path fill-rule="evenodd" clip-rule="evenodd" d="M145.902 247.412L317.708 247.991C323.626 248.013 328.443 243.224 328.464 237.306C328.486 231.388 323.697 226.571 317.779 226.549L145.973 225.97C140.056 225.949 135.238 230.738 135.217 236.656C135.195 242.573 139.984 247.391 145.902 247.412V247.412Z" fill="white"/>
	<path fill-rule="evenodd" clip-rule="evenodd" d="M188.657 290.574H274.424C280.342 290.574 285.145 285.771 285.145 279.853C285.145 273.936 280.342 269.133 274.424 269.133H188.657C182.739 269.133 177.936 273.936 177.936 279.853C177.936 285.771 182.739 290.574 188.657 290.574Z" fill="white"/>
	<path fill-rule="evenodd" clip-rule="evenodd" d="M188.657 204.807H274.424C280.342 204.807 285.145 200.004 285.145 194.086C285.145 188.169 280.342 183.366 274.424 183.366H188.657C182.739 183.366 177.936 188.169 177.936 194.086C177.936 200.004 182.739 204.807 188.657 204.807Z" fill="white"/>
</svg>
