<svg viewBox="0 0 463 498" fill="none" xmlns="http://www.w3.org/2000/svg">
	<path d="M239.844 2.99449C234.413 1.05789 228.48 1.05789 223.049 2.99449L18.715 75.8613C7.7579 79.7687 0.943841 90.7174 2.2769 102.274L33.8276 375.787C34.7524 383.805 39.4904 390.882 46.5501 394.792L219.334 490.491C226.87 494.665 236.024 494.665 243.559 490.491L416.343 394.792C423.403 390.882 428.141 383.805 429.066 375.787L460.616 102.274C461.949 90.7174 455.135 79.7687 444.178 75.8613L239.844 2.99449Z" fill="#873DE6"/>
	<g clip-path="url(#clip0_601_287)">
		<path fill-rule="evenodd" clip-rule="evenodd" d="M145.581 160.502L317.166 161.186C323.077 161.211 327.888 155.557 327.909 148.57C327.923 141.583 323.148 135.895 317.238 135.87L145.652 135.186C139.742 135.161 134.931 140.815 134.909 147.802C134.888 154.789 139.67 160.477 145.581 160.502V160.502Z" fill="white"/>
		<path fill-rule="evenodd" clip-rule="evenodd" d="M187.63 211.186H273.397C279.315 211.186 284.118 205.362 284.118 198.186C284.118 191.01 279.315 185.186 273.397 185.186H187.63C181.712 185.186 176.909 191.01 176.909 198.186C176.909 205.362 181.712 211.186 187.63 211.186Z" fill="white"/>
		<path fill-rule="evenodd" clip-rule="evenodd" d="M187.63 313.186H273.397C279.315 313.186 284.118 307.362 284.118 300.186C284.118 293.01 279.315 287.186 273.397 287.186H187.63C181.712 287.186 176.909 293.01 176.909 300.186C176.909 307.362 181.712 313.186 187.63 313.186Z" fill="white"/>
		<path fill-rule="evenodd" clip-rule="evenodd" d="M144.594 261.502L316.4 262.186C322.318 262.211 327.135 256.557 327.157 249.57C327.178 242.583 322.389 236.895 316.471 236.87L144.666 236.186C138.748 236.161 133.931 241.815 133.909 248.802C133.888 255.789 138.676 261.477 144.594 261.502V261.502Z" fill="white"/>
		<path fill-rule="evenodd" clip-rule="evenodd" d="M144.594 363.502L316.4 364.186C322.318 364.211 327.135 358.557 327.157 351.57C327.171 344.583 322.389 338.895 316.471 338.87L144.666 338.186C138.748 338.169 133.931 343.815 133.909 350.802C133.888 357.789 138.676 363.485 144.594 363.502V363.502Z" fill="white"/>
	</g>
	<defs>
		<clipPath id="clip0_601_287">
			<rect x="117" y="135" width="228.712" height="228.712" rx="25" fill="white"/>
		</clipPath>
	</defs>
</svg>
